<?xml version="1.0" standalone="no"?>
<!DOCTYPE svg PUBLIC "-//W3C//DTD SVG 1.1//EN" 
  "http://www.w3.org/Graphics/SVG/1.1/DTD/svg11.dtd">

<svg width="500" height="500" version="1.1"
     xmlns="http://www.w3.org/2000/svg">

  <polygon points="50,450 250,50 450,450" style="fill:green;fill-opacity:0.2;stroke:#000000;stroke-width:0.5"/>
  <polygon points="50,450 250,150 450,450" style="fill:green;fill-opacity:0.2;stroke:#000000;stroke-width:0.5"/>
  <polygon points="50,450 250,250 450,450" style="fill:green;fill-opacity:0.2;stroke:#000000;stroke-width:0.5"/>
  <polygon points="50,450 250,350 450,450" style="fill:green;fill-opacity:0.2;stroke:#000000;stroke-width:0.5"/>

  <polygon points="50,450 250,50 250,150" style="fill:green;fill-opacity:0.2;stroke:#000000;stroke-width:0.5"/>
  <polygon points="450,450 250,50 250,150" style="fill:green;fill-opacity:0.2;stroke:#000000;stroke-width:0.5"/>
  <polygon points="50,450 250,150 250,250" style="fill:green;fill-opacity:0.2;stroke:#000000;stroke-width:0.5"/>
  <polygon points="450,450 250,150 250,250" style="fill:green;fill-opacity:0.2;stroke:#000000;stroke-width:0.5"/>
  <polygon points="50,450 250,250 250,350" style="fill:green;fill-opacity:0.2;stroke:#000000;stroke-width:0.5"/>
  <polygon points="450,450 250,250 250,350" style="fill:green;fill-opacity:0.2;stroke:#000000;stroke-width:0.5"/>

  <text x="35" y="450" fill="black">A</text>
  <text x="450" y="450">B</text>
  <text x="235" y="348">1</text>
  <text x="235" y="248">2</text>
  <text x="235" y="148">3</text>
  <text x="235" y="48">4</text>

</svg>
